<?xml version="1.0" encoding="utf-8"?> <!-- Generator: IcoMoon.io --> <svg xmlns="http://www.w3.org/2000/svg" fill="#FFFFFF" viewBox="0 0 50 50" width="50" height="50"><g ><path d="M 25 0 C 11.389 0 0.319 10.877 0.007 24.413 C 0.296 12.603 9.277 3.125 20.313 3.125 C 31.531 3.125 40.625 12.919 40.625 25 C 40.625 27.589 42.724 29.688 45.313 29.688 C 47.901 29.688 50 27.589 50 25 C 50 11.193 38.807 0 25 0 Z M 25 50 C 38.611 50 49.681 39.123 49.993 25.587 C 49.704 37.397 40.723 46.875 29.688 46.875 C 18.469 46.875 9.375 37.081 9.375 25 C 9.375 22.411 7.276 20.313 4.688 20.313 C 2.099 20.313 0 22.411 0 25 C 0 38.807 11.193 50 25 50 Z" /></g></svg>