<?xml version="1.0" encoding="utf-8"?> <!-- Generator: IcoMoon.io --> <svg xmlns="http://www.w3.org/2000/svg" fill="#000000" viewBox="0 0 50 50" width="50" height="50"><g ><path d="M 18.75 6.25 A 6.25 6.25 12600 1 0 31.25 6.25 A 6.25 6.25 12600 1 0 18.75 6.25 Z M 32.008 11.742 A 6.25 6.25 12600 1 0 44.508 11.742 A 6.25 6.25 12600 1 0 32.008 11.742 Z M 40.625 25 A 3.125 3.125 12600 1 0 46.875 25 A 3.125 3.125 12600 1 0 40.625 25 Z M 35.133 38.258 A 3.125 3.125 12600 1 0 41.383 38.258 A 3.125 3.125 12600 1 0 35.133 38.258 Z M 21.875 43.75 A 3.125 3.125 12600 1 0 28.125 43.75 A 3.125 3.125 12600 1 0 21.875 43.75 Z M 8.617 38.258 A 3.125 3.125 12600 1 0 14.867 38.258 A 3.125 3.125 12600 1 0 8.617 38.258 Z M 7.054 11.742 A 4.688 4.688 12600 1 0 16.429 11.742 A 4.688 4.688 12600 1 0 7.054 11.742 Z M 2.734 25 A 3.516 3.516 12600 1 0 9.766 25 A 3.516 3.516 12600 1 0 2.734 25 Z" /></g></svg>