<?xml version="1.0" encoding="utf-8"?> <!-- Generator: IcoMoon.io --> <svg xmlns="http://www.w3.org/2000/svg" fill="#FFFFFF" viewBox="0 0 50 50" width="50" height="50"><g ><path d="M 50 25 c -0.062 -3.265 -0.771 -6.519 -2.079 -9.495 c -1.304 -2.979 -3.196 -5.677 -5.52 -7.906 c -2.322 -2.231 -5.075 -3.995 -8.056 -5.159 C 31.367 1.272 28.164 0.714 25 0.781 c -3.165 0.063 -6.315 0.751 -9.196 2.019 c -2.883 1.264 -5.495 3.099 -7.653 5.35 c -2.159 2.25 -3.865 4.917 -4.99 7.803 C 2.033 18.838 1.495 21.936 1.563 25 c 0.063 3.064 0.731 6.111 1.96 8.897 c 1.225 2.788 3.002 5.314 5.181 7.4 c 2.178 2.088 4.759 3.736 7.55 4.82 C 19.042 47.206 22.036 47.723 25 47.656 c 2.964 -0.063 5.906 -0.711 8.597 -1.9 c 2.693 -1.186 5.133 -2.904 7.147 -5.012 c 2.016 -2.106 3.606 -4.601 4.651 -7.296 c 0.636 -1.634 1.068 -3.34 1.296 -5.068 c 0.061 0.004 0.122 0.006 0.184 0.006 c 1.726 0 3.125 -1.399 3.125 -3.125 c 0 -0.088 -0.005 -0.174 -0.012 -0.26 L 50 25 Z M 45.034 33.298 c -1.146 2.598 -2.807 4.951 -4.843 6.894 c -2.035 1.944 -4.443 3.476 -7.043 4.482 C 30.55 45.683 27.763 46.161 25 46.094 c -2.764 -0.063 -5.498 -0.671 -7.999 -1.781 c -2.502 -1.107 -4.77 -2.709 -6.64 -4.673 c -1.872 -1.963 -3.346 -4.285 -4.313 -6.79 C 5.078 30.345 4.621 27.663 4.688 25 c 0.064 -2.664 0.651 -5.294 1.721 -7.7 c 1.067 -2.407 2.612 -4.588 4.504 -6.387 c 1.891 -1.8 4.127 -3.216 6.537 -4.143 C 19.859 5.839 22.437 5.402 25 5.469 c 2.563 0.064 5.089 0.631 7.4 1.662 c 2.312 1.028 4.407 2.515 6.134 4.335 c 1.728 1.819 3.086 3.969 3.974 6.284 C 43.4 20.063 43.816 22.537 43.75 25 l 0.012 0 c -0.007 0.086 -0.012 0.173 -0.012 0.26 c 0 1.612 1.22 2.938 2.787 3.107 C 46.234 30.067 45.73 31.727 45.034 33.298 Z" /></g></svg>